<svg width="195" height="47" viewBox="0 0 195 47" fill="none" xmlns="http://www.w3.org/2000/svg">
<path d="M61.2344 40.059C61.2344 41.0348 60.4486 41.825 59.4781 41.825H58.1801C58.1692 44.1178 56.3147 45.9753 54.0317 45.9753C51.7487 45.9753 49.8951 44.1178 49.8842 41.825H38.453V41.8287C38.453 44.1315 36.5957 46 34.3045 46C32.0134 46 30.1579 44.1315 30.1579 41.8287V41.825H25.9621C24.5378 41.825 23.7056 40.2108 24.5269 39.0411L25.0517 38.2929L29.131 32.4123C29.5521 31.805 29.5521 30.9965 29.1292 30.3892L10.951 4.28475C10.6217 3.81283 10.0851 3.53206 9.51205 3.53206H1.75998C1.18605 3.53206 0.649417 3.25037 0.32107 2.77845C0.10005 2.4611 0 2.11174 0 1.77152C0 0.854206 0.723091 0 1.75998 0H21.7282C22.3012 0 22.8378 0.28077 23.1662 0.752687L35.7316 18.7962C36.431 19.7995 37.91 19.7995 38.6085 18.7962L51.1739 0.752687C51.5022 0.28077 52.0398 0 52.6128 0H55.6298C56.0536 0 56.3028 0.480146 56.0591 0.829511L31.9069 35.5145C31.0911 36.6851 31.9242 38.2929 33.3449 38.2929H59.4781C60.4486 38.2929 61.2344 39.084 61.2344 40.059Z" fill="#093F51"/>
<path d="M44.3723 19.0715L51.4277 29.2031C52.1389 30.2246 53.6433 30.2246 54.3537 29.2031L71.7451 4.22896C71.9471 3.93813 71.7406 3.53938 71.3886 3.53938H68.6463C68.1597 3.53938 67.7031 3.77716 67.4212 4.17683L58.6195 16.6845C57.9055 17.6987 56.4074 17.6951 55.698 16.6771L50.8692 9.74197L44.3723 19.0715Z" fill="#349999"/>
<path d="M77.6273 17.568C77.5905 17.4944 77.572 17.4146 77.572 17.3286C77.572 17.2365 77.6273 17.126 77.7378 16.9971C77.8544 16.862 78.0171 16.7945 78.2259 16.7945H80.2426C80.7215 16.7945 81.0868 17.0861 81.3385 17.6693L84.9023 25.6074L88.4661 17.6693C88.7178 17.0922 89.0831 16.8006 89.562 16.7945H91.5787C91.7936 16.7945 91.9563 16.862 92.0668 16.9971C92.1773 17.126 92.2326 17.2365 92.2326 17.3286C92.2326 17.4146 92.2172 17.4944 92.1865 17.568L86.8822 29.0607C86.5937 29.6869 86.1547 30 85.5653 30H84.2393C83.6499 30 83.2109 29.6869 82.9224 29.0607L77.6273 17.568ZM93.5586 17.9824V17.6693C93.5586 17.344 93.6507 17.0861 93.8349 16.8958C94.0252 16.7055 94.2861 16.6103 94.6177 16.6103H95.7596C96.0849 16.6103 96.3428 16.7055 96.5331 16.8958C96.7234 17.08 96.8186 17.3378 96.8186 17.6693V17.9824C96.8186 18.3078 96.7234 18.5657 96.5331 18.756C96.3489 18.9463 96.0911 19.0415 95.7596 19.0415H94.6177C94.2923 19.0415 94.0344 18.9463 93.8441 18.756C93.6538 18.5657 93.5586 18.3078 93.5586 17.9824ZM93.5955 29.4383V20.699C93.5955 20.5333 93.6477 20.3982 93.752 20.2939C93.8625 20.1895 93.9976 20.1373 94.1572 20.1373H96.22C96.3858 20.1373 96.5208 20.1926 96.6252 20.3031C96.7296 20.4074 96.7817 20.5394 96.7817 20.699V29.4383C96.7817 29.604 96.7265 29.7391 96.616 29.8434C96.5116 29.9478 96.3796 30 96.22 30H94.1572C93.9915 30 93.8564 29.9478 93.752 29.8434C93.6477 29.7391 93.5955 29.604 93.5955 29.4383ZM106.064 22.2461L104.646 22.1909C103.817 22.1909 103.025 22.6452 102.27 23.5538V29.4383C102.27 29.604 102.215 29.7391 102.104 29.8434C102 29.9478 101.868 30 101.708 30H99.6457C99.4799 30 99.3449 29.9478 99.2405 29.8434C99.1361 29.7391 99.084 29.604 99.084 29.4383V20.478C99.084 20.3123 99.1361 20.1772 99.2405 20.0728C99.351 19.9623 99.4861 19.9071 99.6457 19.9071H101.708C101.874 19.9071 102.009 19.9623 102.114 20.0728C102.218 20.1772 102.27 20.3123 102.27 20.478V21.0582C102.896 20.6039 103.498 20.2693 104.075 20.0544C104.658 19.8334 105.42 19.7229 106.359 19.7229C106.525 19.7229 106.66 19.7782 106.764 19.8887C106.875 19.993 106.93 20.125 106.93 20.2846V21.6844C106.93 21.8502 106.875 21.9852 106.764 22.0896C106.66 22.194 106.525 22.2461 106.359 22.2461H106.064ZM113.063 28.0017L114.325 27.8912H114.665C114.831 27.8912 114.966 27.9434 115.071 28.0477C115.181 28.1521 115.236 28.2872 115.236 28.4529V29.4383C115.236 29.5733 115.181 29.6961 115.071 29.8066C114.966 29.911 114.831 29.9754 114.665 30C114.039 30.1228 113.223 30.1842 112.216 30.1842C109.576 30.1842 108.256 28.8028 108.256 26.0402V17.3654C108.256 17.1997 108.308 17.0646 108.413 16.9602C108.523 16.8497 108.658 16.7945 108.818 16.7945H110.881C111.04 16.7945 111.172 16.8497 111.276 16.9602C111.387 17.0646 111.442 17.1997 111.442 17.3654V20.4412H114.012C114.171 20.4412 114.303 20.4934 114.408 20.5977C114.518 20.7021 114.573 20.8372 114.573 21.0029V22.0988C114.573 22.2646 114.518 22.3996 114.408 22.504C114.303 22.6084 114.171 22.6605 114.012 22.6605H111.442V26.0402C111.442 26.6664 111.59 27.1514 111.884 27.4952C112.179 27.8328 112.572 28.0017 113.063 28.0017ZM116.654 25.7547V20.478C116.654 20.3123 116.707 20.1772 116.811 20.0728C116.922 19.9623 117.057 19.9071 117.216 19.9071H119.279C119.439 19.9071 119.571 19.9623 119.675 20.0728C119.785 20.1772 119.841 20.3123 119.841 20.478V25.7547C119.841 27.2281 120.424 27.9648 121.59 27.9648C122.358 27.9648 123.184 27.5228 124.068 26.6388V20.478C124.068 20.3123 124.12 20.1772 124.224 20.0728C124.335 19.9623 124.47 19.9071 124.629 19.9071H126.683C126.849 19.9071 126.984 19.9623 127.088 20.0728C127.199 20.1772 127.254 20.3123 127.254 20.478V29.4383C127.254 29.5979 127.199 29.7329 127.088 29.8434C126.984 29.9478 126.849 30 126.683 30H124.629C124.47 30 124.335 29.9478 124.224 29.8434C124.12 29.7329 124.068 29.5979 124.068 29.4383V28.8489C123.012 29.7391 121.885 30.1842 120.688 30.1842C119.497 30.1842 118.527 29.822 117.778 29.0975C117.029 28.367 116.654 27.2527 116.654 25.7547ZM130.173 29.337C129.363 28.7722 128.958 27.974 128.958 26.9427C128.958 25.9113 129.363 25.1193 130.173 24.5668C130.99 24.0142 132.039 23.738 133.323 23.738H136.371C136.371 23.0197 136.22 22.5193 135.919 22.2369C135.619 21.9545 135.091 21.8133 134.335 21.8133C133.586 21.8133 133.059 22.0006 132.752 22.3751C132.451 22.7434 132.079 22.9276 131.637 22.9276H130.265C130.099 22.9276 129.961 22.8754 129.851 22.771C129.746 22.6605 129.694 22.5255 129.694 22.3659C129.694 20.6039 131.367 19.7229 134.713 19.7229C136.174 19.7229 137.347 20.0514 138.231 20.7083C139.115 21.359 139.557 22.3689 139.557 23.738V29.4383C139.557 29.604 139.505 29.7391 139.4 29.8434C139.296 29.9478 139.161 30 138.995 30H137.218C137.052 30 136.917 29.9478 136.813 29.8434C136.708 29.7329 136.656 29.5979 136.656 29.4383V29.1528C135.686 29.8465 134.566 30.1903 133.295 30.1842C132.03 30.1842 130.99 29.9018 130.173 29.337ZM133.544 25.8284C133.114 25.8284 132.773 25.9328 132.521 26.1415C132.276 26.3502 132.153 26.6203 132.153 26.9519C132.153 27.2834 132.282 27.5566 132.54 27.7715C132.798 27.9863 133.163 28.0938 133.636 28.0938C134.581 28.0938 135.493 27.8175 136.371 27.265V25.8284H133.544ZM141.832 29.4383V17.3654C141.832 17.1997 141.884 17.0646 141.988 16.9602C142.099 16.8497 142.234 16.7945 142.393 16.7945H144.456C144.616 16.7945 144.748 16.8497 144.852 16.9602C144.963 17.0646 145.018 17.1997 145.018 17.3654V29.4383C145.018 29.5979 144.963 29.7329 144.852 29.8434C144.748 29.9478 144.616 30 144.456 30H142.393C142.234 30 142.099 29.9478 141.988 29.8434C141.884 29.7329 141.832 29.5979 141.832 29.4383Z" fill="#093F51"/>
<path d="M146.399 17.568C146.362 17.4944 146.344 17.4146 146.344 17.3286C146.344 17.2365 146.399 17.126 146.51 16.9971C146.626 16.862 146.789 16.7945 146.998 16.7945H149.014C149.493 16.7945 149.859 17.0861 150.11 17.6693L153.674 25.6074L157.238 17.6693C157.49 17.0922 157.855 16.8006 158.334 16.7945H160.351C160.565 16.7945 160.728 16.862 160.839 16.9971C160.949 17.126 161.004 17.2365 161.004 17.3286C161.004 17.4146 160.989 17.4944 160.958 17.568L155.654 29.0607C155.365 29.6869 154.927 30 154.337 30H153.011C152.422 30 151.983 29.6869 151.694 29.0607L146.399 17.568ZM162.533 28.8397C161.588 27.9434 161.115 26.6541 161.115 24.972C161.115 23.2837 161.591 21.9883 162.542 21.0858C163.494 20.1772 164.814 19.7229 166.502 19.7229C168.19 19.7229 169.507 20.1649 170.453 21.049C171.398 21.9269 171.871 23.1885 171.871 24.8338V25.3587C171.871 25.5245 171.816 25.6626 171.705 25.7731C171.601 25.8775 171.466 25.9297 171.3 25.9297H164.366C164.427 26.6848 164.642 27.2343 165.01 27.5781C165.385 27.9219 165.98 28.0938 166.797 28.0938C167.613 28.0938 168.172 27.9096 168.473 27.5412C168.774 27.1729 169.145 26.9856 169.587 26.9795H170.959C171.125 26.9795 171.26 27.0347 171.364 27.1453C171.475 27.2496 171.53 27.3847 171.53 27.5504C171.53 29.3124 169.851 30.1903 166.493 30.1842C164.798 30.1842 163.478 29.736 162.533 28.8397ZM164.347 23.9866H168.629C168.568 22.5378 167.856 21.8133 166.493 21.8133C165.136 21.8133 164.421 22.5378 164.347 23.9866ZM173.565 29.4383V20.478C173.565 20.3123 173.617 20.1772 173.722 20.0728C173.832 19.9623 173.967 19.9071 174.127 19.9071H176.19C176.349 19.9071 176.481 19.9623 176.586 20.0728C176.696 20.1772 176.752 20.3123 176.752 20.478V21.0582C177.807 20.168 178.931 19.7229 180.122 19.7229C181.319 19.7229 182.292 20.0882 183.041 20.8188C183.79 21.5432 184.165 22.6544 184.165 24.1524V29.4383C184.165 29.5979 184.109 29.7329 183.999 29.8434C183.895 29.9478 183.759 30 183.594 30H181.54C181.381 30 181.245 29.9478 181.135 29.8434C181.031 29.7329 180.978 29.5979 180.978 29.4383V24.1524C180.978 22.6851 180.392 21.9515 179.219 21.9515C178.452 21.9515 177.629 22.3904 176.752 23.2683V29.4383C176.752 29.5979 176.696 29.7329 176.586 29.8434C176.481 29.9478 176.349 30 176.19 30H174.127C173.967 30 173.832 29.9478 173.722 29.8434C173.617 29.7329 173.565 29.5979 173.565 29.4383ZM191.246 28.0017L192.508 27.8912H192.849C193.014 27.8912 193.149 27.9434 193.254 28.0477C193.364 28.1521 193.42 28.2872 193.42 28.4529V29.4383C193.42 29.5733 193.364 29.6961 193.254 29.8066C193.149 29.911 193.014 29.9754 192.849 30C192.222 30.1228 191.406 30.1842 190.399 30.1842C187.759 30.1842 186.439 28.8028 186.439 26.0402V17.3654C186.439 17.1997 186.491 17.0646 186.596 16.9602C186.706 16.8497 186.841 16.7945 187.001 16.7945H189.064C189.223 16.7945 189.355 16.8497 189.46 16.9602C189.57 17.0646 189.626 17.1997 189.626 17.3654V20.4412H192.195C192.354 20.4412 192.486 20.4934 192.591 20.5977C192.701 20.7021 192.757 20.8372 192.757 21.0029V22.0988C192.757 22.2646 192.701 22.3996 192.591 22.504C192.486 22.6084 192.354 22.6605 192.195 22.6605H189.626V26.0402C189.626 26.6664 189.773 27.1514 190.068 27.4952C190.362 27.8328 190.755 28.0017 191.246 28.0017Z" fill="#349999"/>
</svg>
