<svg width="55" height="35" viewBox="0 0 55 35" fill="none" xmlns="http://www.w3.org/2000/svg">
<g id="Vector">
<path d="M46.8905 30.4797C46.8905 31.2221 46.2888 31.8234 45.5456 31.8234H44.5517C44.5434 33.5679 43.1232 34.9812 41.375 34.9812C39.6268 34.9812 38.2074 33.5679 38.199 31.8234H29.4455V31.8262C29.4455 33.5783 28.0233 35 26.2688 35C24.5144 35 23.0935 33.5783 23.0935 31.8262V31.8234H19.8806C18.7899 31.8234 18.1526 30.5952 18.7816 29.7052L19.1834 29.1359L22.3072 24.6615C22.6297 24.1995 22.6297 23.5843 22.3058 23.1223L8.38575 3.26013C8.13362 2.90107 7.72269 2.68744 7.2839 2.68744H1.34771C0.908224 2.68744 0.497294 2.47311 0.245861 2.11404C0.0766139 1.87258 0 1.60676 0 1.34789C0 0.649939 0.55371 0 1.34771 0H16.6385C17.0773 0 17.4882 0.21363 17.7396 0.572697L27.3616 14.3014C27.8972 15.0648 29.0297 15.0648 29.5646 14.3014L39.1867 0.572697C39.4381 0.21363 39.8497 0 40.2885 0H42.5988C42.9233 0 43.1142 0.365328 42.9275 0.631149L24.4329 27.0219C23.8081 27.9126 24.4461 29.1359 25.534 29.1359H45.5456C46.2888 29.1359 46.8905 29.7379 46.8905 30.4797Z" fill="#093F51"/>
<path d="M33.9783 14.5109L39.381 22.2197C39.9256 22.997 41.0776 22.997 41.6216 22.2197L54.9392 3.21769C55.0938 2.9964 54.9357 2.693 54.6662 2.693H52.5662C52.1936 2.693 51.844 2.87393 51.6281 3.17802L44.8881 12.6947C44.3414 13.4664 43.1943 13.4636 42.651 12.6891L38.9533 7.41237L33.9783 14.5109Z" fill="#349999"/>
</g>
</svg>
