<svg width="27" height="34" viewBox="0 0 27 34" fill="none" xmlns="http://www.w3.org/2000/svg">
<path d="M0 28.5776V25.2155H3.36207V13.4483C3.36207 11.1228 4.0625 9.06358 5.46336 7.27047C6.86422 5.44935 8.68535 4.25862 10.9267 3.69827V2.52155C10.9267 1.82112 11.1649 1.23276 11.6412 0.756464C12.1455 0.252155 12.7478 0 13.4483 0C14.1487 0 14.7371 0.252155 15.2134 0.756464C15.7177 1.23276 15.9698 1.82112 15.9698 2.52155V3.69827C18.2112 4.25862 20.0323 5.44935 21.4332 7.27047C22.8341 9.06358 23.5345 11.1228 23.5345 13.4483V25.2155H26.8966V28.5776H0ZM13.4483 33.6207C12.5237 33.6207 11.7252 33.2985 11.0528 32.6541C10.4084 31.9817 10.0862 31.1832 10.0862 30.2586H16.8103C16.8103 31.1832 16.4741 31.9817 15.8017 32.6541C15.1573 33.2985 14.3728 33.6207 13.4483 33.6207ZM6.72414 25.2155H20.1724V13.4483C20.1724 11.5991 19.514 10.0162 18.1972 8.69935C16.8804 7.38254 15.2974 6.72414 13.4483 6.72414C11.5991 6.72414 10.0162 7.38254 8.69935 8.69935C7.38254 10.0162 6.72414 11.5991 6.72414 13.4483V25.2155Z" fill="#093F51"/>
</svg>
