<svg width="35" height="34" viewBox="0 0 35 34" fill="none" xmlns="http://www.w3.org/2000/svg">
<path d="M2.51758 2.68945H8.0599L11.7733 20.9825C11.9 21.6115 12.247 22.1765 12.7536 22.5786C13.2602 22.9807 13.8942 23.1944 14.5444 23.1821H28.0122C28.6625 23.1944 29.2964 22.9807 29.803 22.5786C30.3097 22.1765 30.6567 21.6115 30.7834 20.9825L33.0003 9.52032H9.44548M14.9878 30.0129C14.9878 30.7675 14.3675 31.3791 13.6022 31.3791C12.837 31.3791 12.2166 30.7675 12.2166 30.0129C12.2166 29.2584 12.837 28.6468 13.6022 28.6468C14.3675 28.6468 14.9878 29.2584 14.9878 30.0129ZM30.2292 30.0129C30.2292 30.7675 29.6088 31.3791 28.8436 31.3791C28.0784 31.3791 27.458 30.7675 27.458 30.0129C27.458 29.2584 28.0784 28.6468 28.8436 28.6468C29.6088 28.6468 30.2292 29.2584 30.2292 30.0129Z" stroke="#093F51" stroke-width="3.58621" stroke-linecap="round" stroke-linejoin="round"/>
</svg>
