<svg width="45" height="45" viewBox="0 0 45 45" fill="none" xmlns="http://www.w3.org/2000/svg">
<path d="M8.6625 33.975C10.575 32.5125 12.7125 31.3594 15.075 30.5156C17.4375 29.6719 19.9125 29.25 22.5 29.25C25.0875 29.25 27.5625 29.6719 29.925 30.5156C32.2875 31.3594 34.425 32.5125 36.3375 33.975C37.65 32.4375 38.6719 30.6938 39.4031 28.7438C40.1344 26.7938 40.5 24.7125 40.5 22.5C40.5 17.5125 38.7469 13.2656 35.2406 9.75938C31.7344 6.25313 27.4875 4.5 22.5 4.5C17.5125 4.5 13.2656 6.25313 9.75938 9.75938C6.25313 13.2656 4.5 17.5125 4.5 22.5C4.5 24.7125 4.86562 26.7938 5.59687 28.7438C6.32812 30.6938 7.35 32.4375 8.6625 33.975ZM22.5 24.75C20.2875 24.75 18.4219 23.9906 16.9031 22.4719C15.3844 20.9531 14.625 19.0875 14.625 16.875C14.625 14.6625 15.3844 12.7969 16.9031 11.2781C18.4219 9.75938 20.2875 9 22.5 9C24.7125 9 26.5781 9.75938 28.0969 11.2781C29.6156 12.7969 30.375 14.6625 30.375 16.875C30.375 19.0875 29.6156 20.9531 28.0969 22.4719C26.5781 23.9906 24.7125 24.75 22.5 24.75ZM22.5 45C19.3875 45 16.4625 44.4094 13.725 43.2281C10.9875 42.0469 8.60625 40.4438 6.58125 38.4188C4.55625 36.3938 2.95313 34.0125 1.77188 31.275C0.590625 28.5375 0 25.6125 0 22.5C0 19.3875 0.590625 16.4625 1.77188 13.725C2.95313 10.9875 4.55625 8.60625 6.58125 6.58125C8.60625 4.55625 10.9875 2.95313 13.725 1.77188C16.4625 0.590625 19.3875 0 22.5 0C25.6125 0 28.5375 0.590625 31.275 1.77188C34.0125 2.95313 36.3938 4.55625 38.4188 6.58125C40.4438 8.60625 42.0469 10.9875 43.2281 13.725C44.4094 16.4625 45 19.3875 45 22.5C45 25.6125 44.4094 28.5375 43.2281 31.275C42.0469 34.0125 40.4438 36.3938 38.4188 38.4188C36.3938 40.4438 34.0125 42.0469 31.275 43.2281C28.5375 44.4094 25.6125 45 22.5 45Z" fill="#A3D1D1"/>
</svg>
